<svg id="Capa_1" data-name="Capa 1" xmlns="http://www.w3.org/2000/svg" viewBox="0 0 2000 2000"><title>logo-sofia</title><path d="M94.28,887.07c13.62-115,187.23-135.69,269-72.88,40.3,32.59-2.37,84.14-37.92,58.07C281.51,844.41,182,831.38,169.52,893c-16,97.16,241.74,41.47,237.6,199.08-4.15,150.5-222.19,154.05-304,86.51-19.55-16-19-42.08-8.29-58.07,15.4-15.41,32.58-20.74,52.73-4.15,48.58,33.19,173.6,58.06,182.49-26.07C322.39,1002.6,75.9,1055.34,94.28,887.07Z"/><path d="M832,1037.67a4.17,4.17,0,0,0-4,3.19c-17.18,66.58-76.9,100.41-133.33,100.41-54.95,0-114-33.83-131-100.4a4.18,4.18,0,0,0-4-3.2H489.55a4.22,4.22,0,0,0-4.12,4.91c19.17,117.34,119,175.81,215.63,171.56,91,0,185.78-58.46,204.54-171.55a4.21,4.21,0,0,0-4.11-4.92ZM694.67,860.41c55.59,0,114.37,32.41,132.52,97.26a4.17,4.17,0,0,0,4,3.11h69.75a4.22,4.22,0,0,0,4.1-5C885,845,791.17,788.1,701.06,783.38c-95.71,0-194.68,56.91-215.09,172.43a4.22,4.22,0,0,0,4.11,5h70.34a4.17,4.17,0,0,0,4-3.12C582.38,892.82,640.53,860.41,694.67,860.41Z"/><path d="M1409.77,1037.67a4.24,4.24,0,0,1,4.24,4.24v130.14c0,49.18-78.2,50.35-78.2,0V1041.91a4.24,4.24,0,0,1,4.24-4.24Z"/><path d="M1414,833.73V955.82a4.23,4.23,0,0,1-4.24,4.24h-69.72a4.24,4.24,0,0,1-4.24-4.24V833.73C1335.81,785.14,1414,783.38,1414,833.73Z"/><path d="M1257.61,999.64c0,.39,0,.78,0,1.17a38.83,38.83,0,0,1-38.83,37.69h-21.51l-130.46.7a4.24,4.24,0,0,0-4.22,4.24v128.45c0,19.62-15.56,36.22-35.18,36.33-26.3.15-42.45-15.91-42.45-36.74V834.92c0-21.33,16-36.73,42.09-36.73h191.61A38.51,38.51,0,0,1,1257,832.68v.09a34,34,0,0,1,.21,3.92,31.47,31.47,0,0,1-.18,3.38,38.45,38.45,0,0,1-38.35,35.15H1066.8a4.24,4.24,0,0,0-4.24,4.24v77.08a4.24,4.24,0,0,0,4.24,4.24h152a38.85,38.85,0,0,1,38.83,38A8.82,8.82,0,0,1,1257.61,999.64Z"/><path d="M1902.49,1195.74l-.11.12a44.92,44.92,0,0,1-13.83,10.06l-.29.13a39,39,0,0,1-50-18.3c-.06-.1-.11-.2-.16-.3a1.3,1.3,0,0,1-.08-.17l-74.26-147.34-37.44-78.44-18.94-41.36a4.24,4.24,0,0,0-7.65-.12l-20.69,41.48-39.23,78.44-71.21,148.83a36.09,36.09,0,0,1-6.81,10l0,0a39.63,39.63,0,0,1-69.6-25.93c0-.34,0-.68,0-1v-.07A45.64,45.64,0,0,1,1497,1152l170-332.38c16-31.4,58.66-32.59,73.47,0l166.81,331.84.06.11.21.43c.41.78.79,1.55,1.14,2.32.1.2.19.41.27.62A39,39,0,0,1,1902.49,1195.74Z"/></svg>