<svg id="Capa_1" data-name="Capa 1" xmlns="http://www.w3.org/2000/svg" viewBox="0 0 200 50"><defs><style>.cls-1{fill:#00a0f0;}.cls-2{fill:#00aef3;}.cls-3{fill:#008eee;}</style></defs><title>Mesa de trabajo 1</title><path class="cls-1" d="M12.17,8h9.46V35.67H30.9L29.31,42H12.17Z"/><path class="cls-1" d="M33.76,8h17.9l1.59,6.33h-10V22.4h7.61v5.86H43.22v7.41h9.65L51.28,42H33.76Z"/><path class="cls-1" d="M72.61,8h9.33L73.43,42H63.85L55.34,8h9.33l.83,4.36L68.61,30l3.17-17.68Z"/><path class="cls-1" d="M84.48,8h17.9L104,14.33h-10V22.4h7.62v5.86H93.94v7.41h9.65L102,42H84.48Z"/><path class="cls-1" d="M107.14,8h9.46V35.67h9.27L124.28,42H107.14Z"/><path class="cls-2" d="M143.83,42c-2.66,0-4.53-.41-5.58-1.22a4.76,4.76,0,0,1-1.59-4V8h9.4V35.29a.92.92,0,0,0,.15.57,1,1,0,0,0,.73.18h3.24c.38,0,.63-.06.73-.18a.86.86,0,0,0,.16-.57V8h9.4V36.75a4.76,4.76,0,0,1-1.59,4Q157.29,42,153.29,42Z"/><path class="cls-3" d="M182.37,8a6.31,6.31,0,0,1,4.09,1.13,3.69,3.69,0,0,1,1.37,3V28.4a5.5,5.5,0,0,1-.29,1.81,3.19,3.19,0,0,1-1,1.43,5.73,5.73,0,0,1-2,1,12.29,12.29,0,0,1-3.17.35h-7.87v9h-9.15V8Zm-9,6V27.32H178a1.1,1.1,0,0,0,.73-.16.79.79,0,0,0,.16-.54v-12c0-.44-.28-.65-.83-.65Z"/></svg>